# Blender v2.78 (sub 0) OBJ File: 'AngledCorridor.blend'
# www.blender.org
mtllib AngledCorridor.mtl
o Cube
v -2.990001 0.199999 2.000189
v -2.990001 0.200000 -5.999804
v -6.989997 0.200000 -5.999804
v -6.989996 0.199999 2.000191
v -2.990000 -0.199999 2.000187
v -2.990002 -0.199998 -5.999807
v -6.989998 -0.199998 -5.999803
v -6.989997 -0.199999 2.000189
v -2.989999 0.199998 6.000188
v -6.989994 0.199998 6.000190
v -2.989998 -0.200000 6.000186
v -6.989995 -0.200000 6.000188
v 7.009995 0.200000 2.000184
v 7.009995 -0.199998 2.000182
v 7.009996 0.199999 6.000184
v 7.009996 -0.200000 6.000182
vn 0.0000 1.0000 0.0000
vn -0.0000 -1.0000 -0.0000
vn 1.0000 -0.0000 -0.0000
vn -0.0000 0.0000 -1.0000
vn -1.0000 0.0000 0.0000
vn 0.0000 -0.0000 1.0000
usemtl Material
s off
f 1//1 2//1 3//1 4//1
f 5//2 8//2 7//2 6//2
f 1//3 5//3 6//3 2//3
f 2//4 6//4 7//4 3//4
f 3//5 7//5 8//5 4//5
f 11//2 5//2 14//2 16//2
f 11//6 9//6 10//6 12//6
f 8//2 5//2 11//2 12//2
f 4//5 8//5 12//5 10//5
f 1//1 4//1 10//1 9//1
f 14//3 13//3 15//3 16//3
f 5//4 1//4 13//4 14//4
f 9//6 11//6 16//6 15//6
f 1//1 9//1 15//1 13//1
