# Blender v2.78 (sub 0) OBJ File: 'Junction.blend'
# www.blender.org
mtllib Junction.mtl
o Cube
v 1.999999 5.199999 3.000000
v 1.999999 5.199999 -2.999998
v -1.999999 5.199999 -2.999997
v -1.999998 5.199999 3.000001
v 2.000000 4.800001 2.999998
v 1.999998 4.800002 -3.000000
v -2.000000 4.800002 -2.999997
v -1.999999 4.800001 3.000000
v 2.000000 5.199998 7.000000
v -1.999997 5.199998 7.000001
v 2.000001 4.800000 6.999998
v -1.999997 4.800000 7.000000
v 2.000002 5.199996 13.000000
v -1.999995 5.199996 13.000001
v 2.000003 4.799998 12.999998
v -1.999995 4.799998 13.000000
v -7.999997 5.199999 3.000003
v -7.999998 4.800001 3.000002
v -7.999996 5.199998 7.000003
v -7.999996 4.800000 7.000002
v 7.999998 5.199999 2.999997
v 7.999999 4.800001 2.999996
v 7.999999 5.199999 6.999998
v 8.000001 4.800000 6.999996
vn 0.0000 1.0000 0.0000
vn -0.0000 -1.0000 -0.0000
vn 1.0000 0.0000 -0.0000
vn -0.0000 0.0000 -1.0000
vn -1.0000 0.0000 0.0000
vn 0.0000 -0.0000 1.0000
usemtl Material
s off
f 1//1 2//1 3//1 4//1
f 5//2 8//2 7//2 6//2
f 1//3 5//3 6//3 2//3
f 2//4 6//4 7//4 3//4
f 3//5 7//5 8//5 4//5
f 1//1 4//1 10//1 9//1
f 10//5 12//5 16//5 14//5
f 11//2 5//2 22//2 24//2
f 8//2 5//2 11//2 12//2
f 4//4 8//4 18//4 17//4
f 15//6 13//6 14//6 16//6
f 9//1 10//1 14//1 13//1
f 12//2 11//2 15//2 16//2
f 11//3 9//3 13//3 15//3
f 17//5 18//5 20//5 19//5
f 10//1 4//1 17//1 19//1
f 12//6 10//6 19//6 20//6
f 8//2 12//2 20//2 18//2
f 22//3 21//3 23//3 24//3
f 1//1 9//1 23//1 21//1
f 5//4 1//4 21//4 22//4
f 9//6 11//6 24//6 23//6
