# Blender v2.78 (sub 0) OBJ File: ''
# www.blender.org
mtllib leveledCorridor.mtl
o C1_Cube.001
v -2.000000 0.199998 10.000000
v -2.000000 -0.200001 6.000000
v -2.000000 -0.200002 10.000000
v 2.000000 0.199999 6.000000
v 2.000000 7.800001 -13.920986
v 2.000000 8.200001 -13.920986
v 2.000000 -0.200002 10.000000
v 2.000000 -0.200001 6.000000
v 2.000000 0.199998 10.000000
v -2.000000 0.199999 6.000000
v 2.000000 8.200002 -18.000000
v -2.000000 8.200001 -13.920986
v -2.000000 7.800001 -13.920986
v -2.000000 8.200002 -18.000000
v 2.000000 7.800002 -18.000000
v -2.000000 7.800002 -18.000000
vn -1.0000 0.0000 0.0000
vn 1.0000 0.0000 0.0000
vn 0.0000 0.0000 1.0000
vn 0.0000 -1.0000 -0.0000
vn 0.0000 1.0000 0.0000
vn 0.0000 -0.9280 -0.3727
vn 0.0000 0.9280 0.3727
vn 0.0000 0.0000 -1.0000
usemtl None
s 1
f 1//1 2//1 3//1
f 4//2 5//2 6//2
f 4//2 7//2 8//2
f 9//3 3//3 7//3
f 8//4 3//4 2//4
f 10//5 9//5 4//5
f 5//2 11//2 6//2
f 2//6 5//6 8//6
f 4//7 12//7 10//7
f 10//1 13//1 2//1
f 14//8 15//8 16//8
f 13//4 15//4 5//4
f 6//5 14//5 12//5
f 12//1 16//1 13//1
f 1//1 10//1 2//1
f 4//2 8//2 5//2
f 4//2 9//2 7//2
f 9//3 1//3 3//3
f 8//4 7//4 3//4
f 10//5 1//5 9//5
f 5//2 15//2 11//2
f 2//6 13//6 5//6
f 4//7 6//7 12//7
f 10//1 12//1 13//1
f 14//8 11//8 15//8
f 13//4 16//4 15//4
f 6//5 11//5 14//5
f 12//1 14//1 16//1
