# Blender v2.78 (sub 0) OBJ File: 'untitled.blend'
# www.blender.org
mtllib untitled.mtl
o C1_Cube.001
v -2.000000 0.199998 14.000000
v -2.000000 -0.200001 10.000000
v -2.000000 -0.200002 14.000000
v 2.000000 0.199999 10.000000
v 2.000000 7.800001 -9.920986
v 2.000000 8.200001 -9.920986
v 2.000000 -0.200002 14.000000
v 2.000000 -0.200001 10.000000
v 2.000000 0.199998 14.000000
v -2.000000 0.199999 10.000000
v 2.000000 8.200002 -14.000000
v -2.000000 8.200001 -9.920986
v -2.000000 7.800001 -9.920986
v -2.000000 8.200002 -14.000000
v 2.000000 7.800002 -14.000000
v -2.000000 7.800002 -14.000000
vt 0.1199 0.3549
vt 0.2329 0.3998
vt 0.1165 0.3665
vt 0.1199 0.2542
vt 0.7613 0.3097
vt 0.7647 0.3214
vt 0.0001 0.2758
vt 0.1166 0.2426
vt 0.0034 0.3216
vt 0.0001 0.3333
vt 0.1211 0.2424
vt 0.0001 0.1214
vt 0.1211 0.1214
vt 0.1211 0.1211
vt 0.0001 0.0001
vt 0.1211 0.0001
vt 0.8834 0.2875
vt 0.7705 0.2424
vt 0.7705 0.1211
vt 0.2363 0.3882
vt 0.8778 0.3333
vt 0.9998 0.2542
vt 0.8801 0.2758
vt 0.9965 0.2426
vt 0.7705 0.1214
vt 0.8939 0.2424
vt 0.7705 0.0001
vt 0.8939 0.1211
vt 0.8812 0.3216
vt 0.9966 0.3672
vt 0.0034 0.2875
vt 0.0001 0.2424
vt 0.0001 0.1211
vt 0.8939 0.1214
vt 0.8939 0.0001
vt 0.9999 0.3556
vn -1.0000 0.0000 0.0000
vn 1.0000 0.0000 0.0000
vn 0.0000 0.0000 1.0000
vn 0.0000 -1.0000 -0.0000
vn 0.0000 1.0000 0.0000
vn 0.0000 -0.9280 -0.3727
vn 0.0000 0.9280 0.3727
vn 0.0000 0.0000 -1.0000
usemtl None
s 1
f 1/1/1 2/2/1 3/3/1
f 4/4/2 5/5/2 6/6/2
f 4/4/2 7/7/2 8/8/2
f 9/9/3 3/3/3 7/10/3
f 8/11/4 3/12/4 2/13/4
f 10/14/5 9/15/5 4/16/5
f 5/5/2 11/17/2 6/6/2
f 2/13/6 5/18/6 8/11/6
f 4/16/7 12/19/7 10/14/7
f 10/20/1 13/21/1 2/2/1
f 14/22/8 15/23/8 16/24/8
f 13/25/4 15/26/4 5/18/4
f 6/27/5 14/28/5 12/19/5
f 12/29/1 16/30/1 13/21/1
f 1/1/1 10/20/1 2/2/1
f 4/4/2 8/8/2 5/5/2
f 4/4/2 9/31/2 7/7/2
f 9/9/3 1/1/3 3/3/3
f 8/11/4 7/32/4 3/12/4
f 10/14/5 1/33/5 9/15/5
f 5/5/2 15/23/2 11/17/2
f 2/13/6 13/25/6 5/18/6
f 4/16/7 6/27/7 12/19/7
f 10/20/1 12/29/1 13/21/1
f 14/22/8 11/17/8 15/23/8
f 13/25/4 16/34/4 15/26/4
f 6/27/5 11/35/5 14/28/5
f 12/29/1 14/36/1 16/30/1
