# Blender v2.78 (sub 0) OBJ File: 'LevelCorridor.blend'
# www.blender.org
mtllib LevelCorridor.mtl
o C1_Cube.001
v -2.000000 -0.200000 10.000000
v -2.000000 0.200000 10.000000
v -2.000000 -0.200000 6.000000
v -2.000000 0.200000 6.000000
v 2.000000 -0.200000 10.000000
v 2.000000 0.200000 10.000000
v 2.000000 -0.200000 6.000000
v 2.000000 0.200000 6.000000
v -2.000000 4.200000 -5.920987
v -2.000000 3.800000 -5.920987
v 2.000000 3.800000 -5.920987
v 2.000000 4.200000 -5.920987
v -2.000000 4.200000 -10.000000
v -2.000000 3.800000 -10.000000
v 2.000000 3.800000 -10.000000
v 2.000000 4.200000 -10.000000
vn -1.0000 0.0000 0.0000
vn 1.0000 0.0000 0.0000
vn 0.0000 0.0000 1.0000
vn 0.0000 -1.0000 0.0000
vn 0.0000 1.0000 0.0000
vn 0.0000 -0.9481 -0.3181
vn 0.0000 0.9481 0.3181
vn 0.0000 0.0000 -1.0000
usemtl None
s off
f 2//1 3//1 1//1
f 8//2 11//2 12//2
f 8//2 5//2 7//2
f 6//3 1//3 5//3
f 7//4 1//4 3//4
f 4//5 6//5 8//5
f 11//2 16//2 12//2
f 3//6 11//6 7//6
f 8//7 9//7 4//7
f 4//1 10//1 3//1
f 13//8 15//8 14//8
f 10//4 15//4 11//4
f 12//5 13//5 9//5
f 9//1 14//1 10//1
f 2//1 4//1 3//1
f 8//2 7//2 11//2
f 8//2 6//2 5//2
f 6//3 2//3 1//3
f 7//4 5//4 1//4
f 4//5 2//5 6//5
f 11//2 15//2 16//2
f 3//6 10//6 11//6
f 8//7 12//7 9//7
f 4//1 9//1 10//1
f 13//8 16//8 15//8
f 10//4 14//4 15//4
f 12//5 16//5 13//5
f 9//1 13//1 14//1
